<?xml version="1.0" encoding="UTF-8"?>
<!DOCTYPE svg PUBLIC "-//W3C//DTD SVG 1.1//EN" "http://www.w3.org/Graphics/SVG/1.1/DTD/svg11.dtd">
<!-- Creator: CorelDRAW X8 -->
<svg xmlns="http://www.w3.org/2000/svg" xml:space="preserve" width="152px" height="38px" version="1.1" style="shape-rendering:geometricPrecision; text-rendering:geometricPrecision; image-rendering:optimizeQuality; fill-rule:evenodd; clip-rule:evenodd"
viewBox="0 0 2411010 601509"
 xmlns:xlink="http://www.w3.org/1999/xlink">
 <defs>
  <style type="text/css">
   <![CDATA[
    .fil1 {fill:#25596B}
    .fil0 {fill:#2D3D4D}
    .fil2 {fill:#2A719A;fill-rule:nonzero}
   ]]>
  </style>
 </defs>
 <g id="Layer_x0020_1">
  <metadata id="CorelCorpID_0Corel-Layer"/>
  <g id="_181005423568">
   <g>
    <path class="fil0" d="M299343 0c71049,0 136340,24662 187795,65870l-30065 0c-20661,0 -38273,13631 -44275,32365l-113455 0 0 -98235zm265183 158814c5534,10265 10470,20885 14771,31823l-122224 0c-20661,0 -38273,13649 -44275,32384l-113455 0 0 -96590 113455 0c6002,18734 23614,32383 44275,32383l107453 0zm35076 124786c318,5665 486,11405 486,17164 0,4917 -112,9797 -355,14677l-142660 0c-20661,0 -38273,13649 -44275,32365l-113455 0 0 -96590 113455 0c6002,18735 23614,32384 44275,32384l142529 0zm-19370 124785c-4189,10938 -8994,21558 -14397,31860l-108762 0c-20661,0 -38273,13631 -44275,32365l-113455 0 0 -96590 113455 0c6002,18716 23614,32365 44275,32365l123159 0zm-90009 124804c-51922,42686 -118410,68320 -190880,68320l0 -100703 113455 0c6002,18734 23614,32383 44275,32383l33150 0zm-348610 -467319l-29037 0c-31636,25316 -58074,56952 -77388,92944l106425 0c20660,0 38273,-13649 44275,-32383l113455 0 0 -28196 -113455 0c-6002,-18734 -23615,-32365 -44275,-32365zm0 374375l-107715 0c18810,35824 44593,67423 75612,92944l32103 0c20660,0 38273,-13649 44275,-32383l113455 0 0 -28196 -113455 0c-6002,-18734 -23615,-32365 -44275,-32365zm0 -124804l-141613 0c1571,32608 8358,63870 19501,92944l122112 0c20660,0 38273,-13649 44275,-32365l113455 0 0 -28214 -113455 0c-6002,-18716 -23615,-32365 -44275,-32365zm0 -124804l-121158 0c-11443,29056 -18473,60317 -20324,92963l141482 0c20660,0 38273,-13649 44275,-32384l113455 0 0 -28195 -113455 0c-6002,-18735 -23615,-32384 -44275,-32384z"/>
    <path class="fil1" d="M677027 276327l0 -210008 44518 0 0 210008 -44518 0zm221394 -58224c0,18959 -6880,33861 -20492,44799 -13630,10938 -32664,16379 -56970,16379 -22400,0 -42256,-4226 -59476,-12658l0 -41377c14172,6338 26195,10788 35992,13387 9797,2599 18772,3870 26905,3870 9816,0 17314,-1851 22512,-5590 5235,-3721 7834,-9311 7834,-16659 0,-4114 -1122,-7797 -3422,-10976 -2300,-3234 -5684,-6338 -10152,-9274 -4469,-2991 -13537,-7740 -27205,-14209 -12845,-6077 -22511,-11873 -28924,-17408 -6414,-5534 -11518,-12003 -15351,-19407 -3870,-7367 -5777,-15986 -5777,-25840 0,-18585 6319,-33188 18921,-43826 12602,-10639 30009,-15930 52203,-15930 10938,0 21334,1271 31280,3870 9910,2599 20250,6226 31075,10938l-14359 34608c-11219,-4618 -20492,-7796 -27784,-9610 -7367,-1814 -14565,-2748 -21633,-2748 -8432,0 -14902,1963 -19408,5889 -4506,3908 -6768,9068 -6768,15388 0,3926 935,7348 2748,10246 1814,2936 4712,5740 8676,8470 3964,2749 13387,7666 28233,14715 19669,9404 33094,18828 40404,28233 7255,9460 10938,20978 10938,34720zm82493 -58541l14359 0c14079,0 24475,-2356 31131,-7049 6731,-4674 10059,-12078 10059,-22118 0,-9947 -3440,-17052 -10246,-21278 -6862,-4207 -17463,-6320 -31823,-6320l-13480 0 0 56765zm0 36179l0 80586 -44519 0 0 -210008 61196 0c28532,0 49604,5198 63291,15594 13723,10395 20529,26176 20529,47304 0,12359 -3384,23334 -10190,33000 -6768,9611 -16379,17146 -28831,22587 31580,47210 52165,77761 61720,91523l-49417 0 -50090 -80586 -23689 0zm307083 80586l-44518 0 0 -172950 -57008 0 0 -37058 158534 0 0 37058 -57008 0 0 172950zm133872 -116765l14379 0c14060,0 24456,-2356 31130,-7049 6713,-4674 10041,-12078 10041,-22118 0,-9947 -3440,-17052 -10246,-21278 -6862,-4207 -17445,-6320 -31823,-6320l-13481 0 0 56765zm0 36179l0 80586 -44499 0 0 -210008 61177 0c28532,0 49604,5198 63290,15594 13724,10395 20530,26176 20530,47304 0,12359 -3384,23334 -10190,33000 -6768,9611 -16379,17146 -28831,22587 31580,47210 52165,77761 61720,91523l-49417 0 -50090 -80586 -23690 0zm278253 80586l-15238 -49997 -76584 0 -15183 49997 -47995 0 74115 -210887 54428 0 74415 210887 -47958 0zm-25877 -87354c-14061,-45285 -22007,-70937 -23783,-76864 -1758,-5927 -3029,-10639 -3777,-14061 -3178,12247 -12247,42537 -27148,90925l54708 0zm286535 87354l-56578 0 -91373 -158871 -1272 0c1814,28083 2749,48089 2749,60056l0 98815 -39807 0 0 -210008 56186 0 91167 157319 1029 0c-1459,-27317 -2150,-46631 -2150,-57906l0 -99413 40049 0 0 210008zm176876 -58224c0,18959 -6862,33861 -20492,44799 -13630,10938 -32646,16379 -56952,16379 -22418,0 -42274,-4226 -59476,-12658l0 -41377c14173,6338 26176,10788 35992,13387 9798,2599 18772,3870 26906,3870 9797,0 17313,-1851 22511,-5590 5235,-3721 7834,-9311 7834,-16659 0,-4114 -1122,-7797 -3440,-10976 -2300,-3234 -5684,-6338 -10134,-9274 -4469,-2991 -13537,-7740 -27204,-14209 -12845,-6077 -22512,-11873 -28925,-17408 -6432,-5534 -11536,-12003 -15351,-19407 -3870,-7367 -5777,-15986 -5777,-25840 0,-18585 6320,-33188 18922,-43826 12583,-10639 29990,-15930 52202,-15930 10938,0 21334,1271 31281,3870 9891,2599 20249,6226 31075,10938l-14360 34608c-11237,-4618 -20492,-7796 -27803,-9610 -7348,-1814 -14565,-2748 -21614,-2748 -8432,0 -14901,1963 -19407,5889 -4525,3908 -6769,9068 -6769,15388 0,3926 935,7348 2749,10246 1813,2936 4693,5740 8675,8470 3964,2749 13387,7666 28233,14715 19651,9404 33094,18828 40386,28233 7255,9460 10938,20978 10938,34720zm37993 58224l0 -210008 44518 0 0 210008 -44518 0zm178353 0l-44518 0 0 -172950 -57008 0 0 -37058 158534 0 0 37058 -57008 0 0 172950z"/>
   </g>
   <path class="fil2" d="M685460 501815l0 -117998 23409 0 27896 83521c2580,7778 4450,13611 5628,17482 1346,-4282 3459,-10602 6319,-18922l28402 -82081 20903 0 0 117998 -14995 0 0 -98721 -34440 98721 -14061 0 -34066 -100535 0 100535 -14995 0z"/>
   <path id="1" class="fil2" d="M820585 534685l-1646 -13387c3198,841 5946,1290 8302,1290 3235,0 5815,-561 7741,-1627 1963,-1065 3552,-2580 4786,-4506 898,-1458 2393,-5048 4413,-10825 280,-786 691,-1982 1290,-3534l-32459 -85802 15500 0 17837 49380c2338,6226 4394,12826 6245,19744 1664,-6507 3646,-12939 5965,-19258l18230 -49866 14471 0 -32327 86998c-3478,9368 -6208,15800 -8152,19352 -2580,4749 -5553,8227 -8881,10452 -3347,2225 -7330,3328 -11948,3328 -2786,0 -5927,-580 -9367,-1739z"/>
   <path id="2" class="fil2" d="M905788 501815l0 -117998 52296 0c10527,0 18510,1066 23989,3197 5459,2113 9835,5834 13088,11200 3272,5347 4899,11293 4899,17762 0,8377 -2730,15444 -8134,21184 -5403,5740 -13761,9368 -25073,10938 4151,1963 7273,3945 9424,5871 4562,4170 8862,9424 12901,15706l20417 32140 -19501 0 -15612 -24549c-4525,-7124 -8283,-12527 -11237,-16285 -2955,-3777 -5591,-6376 -7928,-7891 -2300,-1477 -4693,-2524 -7124,-3122 -1757,-374 -4637,-561 -8675,-561l-18062 0 0 52408 -15668 0zm15668 -65926l33506 0c7142,0 12677,-729 16696,-2225 4002,-1440 7068,-3814 9125,-7086 2075,-3235 3122,-6750 3122,-10564 0,-5572 -2000,-10190 -6039,-13799 -4039,-3590 -10414,-5385 -19109,-5385l-37301 0 0 39059z"/>
   <path id="3" class="fil2" d="M1022665 400308l0 -16491 14490 0 0 16491 -14490 0zm0 101507l0 -85521 14490 0 0 85521 -14490 0z"/>
   <path id="4" class="fil2" d="M1114468 501815l0 -10844c-5404,8432 -13369,12658 -23895,12658 -6806,0 -13069,-1870 -18753,-5628 -5703,-3739 -10134,-8993 -13294,-15687 -3123,-6731 -4693,-14453 -4693,-23184 0,-8508 1421,-16230 4263,-23185 2842,-6918 7105,-12247 12789,-15930 5665,-3702 12041,-5534 19033,-5534 5161,0 9760,1084 13762,3253 4020,2169 7273,5029 9816,8526l0 -42443 14490 0 0 117998 -13518 0zm-45808 -42648c0,10919 2318,19090 6955,24493 4618,5404 10078,8096 16360,8096 6357,0 11742,-2580 16192,-7740 4413,-5161 6638,-13051 6638,-23652 0,-11649 -2244,-20212 -6788,-25672 -4506,-5478 -10077,-8189 -16696,-8189 -6451,0 -11836,2617 -16173,7853 -4319,5254 -6488,13518 -6488,24811z"/>
   <path id="5" class="fil2" d="M1209263 474125l14995 1982c-2337,8713 -6693,15500 -13069,20305 -6376,4805 -14509,7217 -24419,7217 -12471,0 -22362,-3852 -29672,-11536 -7311,-7666 -10957,-18454 -10957,-32328 0,-14341 3683,-25484 11069,-33393 7385,-7946 16977,-11891 28756,-11891 11406,0 20717,3870 27934,11629 7217,7778 10844,18716 10844,32795 0,860 -18,2150 -74,3852l-63702 0c561,9367 3197,16566 7965,21539 4768,4974 10714,7460 17837,7460 5292,0 9835,-1402 13556,-4188 3777,-2805 6731,-7292 8937,-13443zm-47472 -23241l47640 0c-635,-7180 -2486,-12564 -5478,-16173 -4581,-5572 -10564,-8376 -17893,-8376 -6656,0 -12228,2225 -16772,6674 -4487,4450 -6992,10415 -7497,17875z"/>
   <path id="6" class="fil2" d="M1288371 501815l0 -85521 13013 0 0 12079c2674,-4170 6227,-7554 10676,-10078 4450,-2562 9517,-3814 15201,-3814 6320,0 11499,1308 15538,3926 4038,2636 6899,6282 8544,11013 6806,-9985 15631,-14939 26513,-14939 8507,0 15070,2318 19632,7030 4581,4693 6899,11910 6899,21670l0 58634 -14509 0 0 -53829c0,-5777 -486,-9947 -1421,-12508 -934,-2543 -2636,-4581 -5141,-6152 -2468,-1552 -5385,-2337 -8713,-2337 -6039,0 -11032,2019 -15014,6002 -3983,4001 -5965,10395 -5965,19202l0 49622 -14509 0 0 -55512c0,-6432 -1178,-11256 -3533,-14471 -2356,-3216 -6245,-4843 -11593,-4843 -4057,0 -7834,1084 -11293,3216 -3459,2150 -5964,5273 -7516,9423 -1552,4132 -2319,10078 -2319,17856l0 44331 -14490 0z"/>
   <path id="7" class="fil2" d="M1481514 491102c-5385,4581 -10583,7797 -15557,9704 -4973,1888 -10302,2823 -16004,2823 -9405,0 -16622,-2281 -21670,-6862 -5067,-4562 -7592,-10414 -7592,-17538 0,-4169 973,-7984 2861,-11443 1926,-3459 4431,-6207 7498,-8301 3103,-2076 6562,-3684 10433,-4749 2860,-748 7180,-1459 12920,-2169 11704,-1365 20342,-3048 25877,-4974 56,-1982 74,-3234 74,-3758 0,-5871 -1365,-10022 -4113,-12452 -3721,-3253 -9236,-4880 -16547,-4880 -6825,0 -11892,1215 -15126,3590 -3272,2393 -5665,6619 -7217,12733l-14173 -1982c1290,-6077 3403,-10994 6357,-14734 2973,-3721 7255,-6581 12864,-8619 5572,-2001 12078,-3010 19445,-3010 7311,0 13256,841 17856,2580 4562,1720 7928,3870 10078,6469 2131,2618 3646,5908 4525,9891 467,2468 710,6918 710,13331l0 19221c0,13424 318,21913 916,25521 580,3590 1776,7031 3534,10321l-15145 0c-1458,-3047 -2393,-6618 -2804,-10713zm-1160 -32141c-5272,2150 -13181,3964 -23726,5441 -5984,860 -10228,1814 -12696,2880 -2468,1084 -4356,2636 -5703,4674 -1346,2057 -2038,4338 -2038,6862 0,3833 1459,7049 4394,9591 2936,2562 7217,3852 12845,3852 5591,0 10546,-1215 14921,-3665 4337,-2412 7553,-5740 9591,-9928 1552,-3272 2338,-8077 2338,-14434l74 -5273z"/>
   <path id="8" class="fil2" d="M1517300 501815l0 -85521 13013 0 0 12135c6264,-9312 15332,-13948 27167,-13948 5161,0 9891,934 14192,2767 4319,1832 7553,4281 9704,7273 2131,2992 3646,6563 4506,10695 523,2692 785,7385 785,14079l0 52520 -14490 0 0 -51959c0,-5909 -561,-10340 -1683,-13238 -1122,-2917 -3123,-5254 -5983,-7011 -2861,-1739 -6245,-2618 -10078,-2618 -6152,0 -11462,1963 -15930,5890 -4488,3889 -6713,11349 -6713,22268l0 46668 -14490 0z"/>
   <path id="9" class="fil2" d="M1664821 491102c-5384,4581 -10582,7797 -15556,9704 -4973,1888 -10302,2823 -16005,2823 -9404,0 -16621,-2281 -21670,-6862 -5067,-4562 -7591,-10414 -7591,-17538 0,-4169 972,-7984 2861,-11443 1926,-3459 4431,-6207 7498,-8301 3103,-2076 6562,-3684 10433,-4749 2860,-748 7179,-1459 12919,-2169 11705,-1365 20343,-3048 25877,-4974 56,-1982 75,-3234 75,-3758 0,-5871 -1365,-10022 -4113,-12452 -3721,-3253 -9237,-4880 -16547,-4880 -6825,0 -11892,1215 -15126,3590 -3272,2393 -5666,6619 -7218,12733l-14172 -1982c1290,-6077 3403,-10994 6357,-14734 2973,-3721 7255,-6581 12864,-8619 5572,-2001 12078,-3010 19445,-3010 7311,0 13256,841 17856,2580 4562,1720 7927,3870 10078,6469 2131,2618 3646,5908 4524,9891 468,2468 711,6918 711,13331l0 19221c0,13424 318,21913 916,25521 580,3590 1776,7031 3534,10321l-15145 0c-1458,-3047 -2393,-6618 -2805,-10713zm-1159 -32141c-5272,2150 -13181,3964 -23727,5441 -5983,860 -10227,1814 -12695,2880 -2468,1084 -4357,2636 -5703,4674 -1346,2057 -2038,4338 -2038,6862 0,3833 1459,7049 4394,9591 2936,2562 7217,3852 12845,3852 5591,0 10545,-1215 14921,-3665 4337,-2412 7553,-5740 9591,-9928 1552,-3272 2337,-8077 2337,-14434l75 -5273z"/>
   <path id="10" class="fil2" d="M1697934 508902l14004 1982c580,4337 2225,7497 4918,9498 3608,2673 8526,4020 14752,4020 6712,0 11891,-1347 15556,-4020 3646,-2655 6114,-6432 7404,-11237 748,-2936 1103,-9106 1047,-18529 -6338,7460 -14228,11199 -23671,11199 -11760,0 -20884,-4225 -27297,-12714 -6470,-8470 -9667,-18622 -9667,-30458 0,-8170 1477,-15687 4413,-22586 2935,-6899 7217,-12190 12826,-15949 5609,-3776 12190,-5627 19782,-5627 10077,0 18398,4113 24942,12358l0 -10545 13350 0 0 73854c0,13313 -1347,22736 -4076,28289 -2693,5535 -6993,9947 -12845,13144 -5890,3216 -13107,4843 -21671,4843 -10190,0 -18416,-2281 -24680,-6862 -6282,-4562 -9311,-11461 -9087,-20660zm11873 -51306c0,11181 2225,19333 6675,24475 4469,5123 10040,7722 16753,7722 6675,0 12246,-2561 16771,-7666 4506,-5123 6768,-13125 6768,-24063 0,-10433 -2337,-18323 -6974,-23615 -4655,-5310 -10246,-7946 -16790,-7946 -6450,0 -11910,2617 -16453,7834 -4506,5217 -6750,12957 -6750,23259z"/>
   <path id="11" class="fil2" d="M1850597 474125l14995 1982c-2337,8713 -6693,15500 -13069,20305 -6376,4805 -14509,7217 -24419,7217 -12471,0 -22361,-3852 -29672,-11536 -7311,-7666 -10957,-18454 -10957,-32328 0,-14341 3684,-25484 11069,-33393 7385,-7946 16977,-11891 28756,-11891 11406,0 20717,3870 27934,11629 7217,7778 10845,18716 10845,32795 0,860 -19,2150 -75,3852l-63702 0c561,9367 3197,16566 7965,21539 4768,4974 10714,7460 17837,7460 5292,0 9835,-1402 13556,-4188 3777,-2805 6731,-7292 8937,-13443zm-47472 -23241l47640 0c-635,-7180 -2486,-12564 -5478,-16173 -4581,-5572 -10564,-8376 -17893,-8376 -6656,0 -12228,2225 -16772,6674 -4487,4450 -6992,10415 -7497,17875z"/>
   <path id="12" class="fil2" d="M1883747 501815l0 -85521 13014 0 0 13088c3328,-6058 6394,-10078 9236,-12003 2823,-1945 5927,-2898 9311,-2898 4880,0 9854,1533 14902,4580l-5160 13369c-3515,-1963 -7031,-2954 -10546,-2954 -3159,0 -5983,953 -8488,2842 -2487,1907 -4282,4543 -5348,7927 -1626,5123 -2412,10751 -2412,16884l0 44686 -14509 0z"/>
  </g>
 </g>
</svg>
