<?xml version="1.0" encoding="UTF-8"?>
<!DOCTYPE svg PUBLIC "-//W3C//DTD SVG 1.1//EN" "http://www.w3.org/Graphics/SVG/1.1/DTD/svg11.dtd">
<!-- Creator: CorelDRAW X8 -->
<svg xmlns="http://www.w3.org/2000/svg" xml:space="preserve" width="154px" height="38px" version="1.1" style="shape-rendering:geometricPrecision; text-rendering:geometricPrecision; image-rendering:optimizeQuality; fill-rule:evenodd; clip-rule:evenodd"
viewBox="0 0 2466053 609424"
 xmlns:xlink="http://www.w3.org/1999/xlink">
 <defs>
  <style type="text/css">
   <![CDATA[
    .fil1 {fill:#25596B}
    .fil0 {fill:#2D3D4D}
    .fil2 {fill:#2A719A;fill-rule:nonzero}
   ]]>
  </style>
 </defs>
 <g id="Layer_x0020_1">
  <metadata id="CorelCorpID_0Corel-Layer"/>
  <g id="_181011372608">
   <g>
    <path class="fil0" d="M303282 0c71984,0 138134,24986 190266,66737l-30461 0c-20932,0 -38777,13810 -44858,32791l-114947 0 0 -99528zm268672 160904c5607,10400 10608,21160 14965,32241l-123832 0c-20932,0 -38777,13829 -44858,32810l-114947 0 0 -97861 114947 0c6081,18981 23926,32810 44858,32810l108867 0zm35537 126427c322,5740 493,11556 493,17390 0,4982 -114,9927 -360,14871l-144537 0c-20932,0 -38777,13828 -44858,32791l-114947 0 0 -97861 114947 0c6081,18981 23926,32809 44858,32809l144404 0zm-19625 126428c-4243,11082 -9111,21841 -14586,32279l-110193 0c-20932,0 -38777,13810 -44858,32791l-114947 0 0 -97861 114947 0c6081,18962 23926,32791 44858,32791l124779 0zm-91193 126446c-52605,43247 -119967,69219 -193391,69219l0 -102029 114947 0c6081,18981 23926,32810 44858,32810l33586 0zm-353197 -473468l-29419 0c-32052,25649 -58837,57701 -78406,94167l107825 0c20933,0 38777,-13829 44858,-32810l114948 0 0 -28566 -114948 0c-6081,-18981 -23925,-32791 -44858,-32791zm0 379301l-109132 0c19057,36295 45180,68309 76607,94167l32525 0c20933,0 38777,-13829 44858,-32810l114948 0 0 -28566 -114948 0c-6081,-18981 -23925,-32791 -44858,-32791zm0 -126446l-143476 0c1591,33037 8468,64710 19758,94167l123718 0c20933,0 38777,-13829 44858,-32791l114948 0 0 -28585 -114948 0c-6081,-18963 -23925,-32791 -44858,-32791zm0 -126447l-122752 0c-11593,29438 -18716,61111 -20591,94186l143343 0c20933,0 38777,-13828 44858,-32809l114948 0 0 -28567 -114948 0c-6081,-18981 -23925,-32810 -44858,-32810z"/>
    <path class="fil1" d="M685935 279962l0 -212770 45104 0 0 212770 -45104 0zm224308 -58989c0,19209 -6971,34306 -20762,45388 -13810,11082 -33094,16594 -57720,16594 -22694,0 -42812,-4281 -60259,-12824l0 -41922c14359,6422 26540,10931 36466,13564 9926,2633 19019,3921 27259,3921 9946,0 17542,-1875 22808,-5664 5304,-3770 7937,-9434 7937,-16878 0,-4168 -1136,-7900 -3466,-11120 -2330,-3277 -5759,-6422 -10287,-9396 -4527,-3031 -13714,-7842 -27562,-14397 -13014,-6156 -22808,-12029 -29305,-17636 -6498,-5607 -11669,-12162 -15553,-19663 -3921,-7464 -5853,-16197 -5853,-26180 0,-18829 6403,-33624 19170,-44403 12768,-10778 30404,-16139 52890,-16139 11082,0 21614,1288 31692,3921 10040,2633 20516,6308 31484,11082l-14549 35064c-11366,-4679 -20761,-7900 -28149,-9737 -7464,-1838 -14757,-2785 -21918,-2785 -8543,0 -15097,1989 -19663,5967 -4565,3959 -6857,9188 -6857,15591 0,3978 947,7444 2784,10381 1838,2974 4774,5815 8790,8581 4016,2784 13564,7767 28604,14908 19929,9529 33530,19076 40937,28605 7350,9585 11082,21254 11082,35177zm83577 -59311l14549 0c14264,0 24796,-2387 31540,-7142 6820,-4736 10192,-12237 10192,-22410 0,-10078 -3486,-17276 -10381,-21557 -6952,-4262 -17693,-6403 -32242,-6403l-13658 0 0 57512zm0 36655l0 81645 -45104 0 0 -212770 62002 0c28907,0 50256,5266 64123,15798 13904,10533 20799,26521 20799,47927 0,12521 -3428,23641 -10324,33435 -6857,9737 -16594,17371 -29210,22883 31995,47832 52851,78785 62531,92727l-50067 0 -50749 -81645 -24001 0zm311124 81645l-45103 0 0 -175225 -57758 0 0 -37545 160619 0 0 37545 -57758 0 0 175225zm135634 -118300l14568 0c14245,0 24777,-2387 31540,-7142 6801,-4736 10173,-12237 10173,-22410 0,-10078 -3486,-17276 -10381,-21557 -6952,-4262 -17674,-6403 -32242,-6403l-13658 0 0 57512zm0 36655l0 81645 -45085 0 0 -212770 61983 0c28907,0 50256,5266 64123,15798 13904,10533 20799,26521 20799,47927 0,12521 -3429,23641 -10324,33435 -6857,9737 -16594,17371 -29210,22883 31995,47832 52851,78785 62531,92727l-50067 0 -50749 -81645 -24001 0zm281914 81645l-15439 -50654 -77592 0 -15381 50654 -48628 0 75091 -213661 55144 0 75394 213661 -48589 0zm-26218 -88502c-14245,-45881 -22296,-71871 -24096,-77876 -1780,-6005 -3068,-10779 -3826,-14246 -3220,12408 -12408,43096 -27506,92122l55428 0zm290306 88502l-57323 0 -92575 -160960 -1288 0c1837,28452 2784,48722 2784,60845l0 100115 -40330 0 0 -212770 56925 0 92367 159388 1042 0c-1478,-27676 -2179,-47244 -2179,-58667l0 -100721 40577 0 0 212770zm179203 -58989c0,19209 -6952,34306 -20762,45388 -13809,11082 -33075,16594 -57701,16594 -22713,0 -42831,-4281 -60258,-12824l0 -41922c14359,6422 26520,10931 36465,13564 9927,2633 19019,3921 27260,3921 9926,0 17541,-1875 22807,-5664 5304,-3770 7938,-9434 7938,-16878 0,-4168 -1137,-7900 -3486,-11120 -2330,-3277 -5759,-6422 -10267,-9396 -4528,-3031 -13715,-7842 -27563,-14397 -13014,-6156 -22807,-12029 -29305,-17636 -6516,-5607 -11688,-12162 -15552,-19663 -3922,-7464 -5854,-16197 -5854,-26180 0,-18829 6403,-33624 19171,-44403 12749,-10778 30385,-16139 52889,-16139 11082,0 21615,1288 31692,3921 10021,2633 20516,6308 31484,11082l-14548 35064c-11385,-4679 -20762,-7900 -28169,-9737 -7445,-1838 -14757,-2785 -21898,-2785 -8544,0 -15098,1989 -19663,5967 -4585,3959 -6858,9188 -6858,15591 0,3978 947,7444 2785,10381 1837,2974 4755,5815 8789,8581 4016,2784 13564,7767 28605,14908 19909,9529 33529,19076 40917,28605 7350,9585 11082,21254 11082,35177zm38493 58989l0 -212770 45104 0 0 212770 -45104 0zm180700 0l-45104 0 0 -175225 -57758 0 0 -37545 160620 0 0 37545 -57758 0 0 175225z"/>
   </g>
   <path class="fil2" d="M750740 461496l0 -14018 50598 0 0 44308c-7767,6176 -15780,10836 -24039,13961 -8259,3126 -16765,4679 -25441,4679 -11745,0 -22391,-2500 -31995,-7539 -9585,-5020 -16841,-12313 -21709,-21804 -4906,-9509 -7350,-20137 -7350,-31863 0,-11631 2425,-22485 7293,-32582 4868,-10078 11859,-17560 20989,-22429 9112,-4887 19644,-7350 31541,-7350 8638,0 16461,1402 23433,4206 6990,2822 12483,6706 16423,11688 3978,5020 6990,11555 9055,19587l-14283 3902c-1819,-6062 -4035,-10854 -6687,-14359 -2671,-3485 -6441,-6251 -11404,-8354 -4925,-2083 -10400,-3144 -16443,-3144 -7217,0 -13449,1117 -18734,3315 -5248,2197 -9491,5096 -12749,8714 -3221,3580 -5721,7539 -7502,11820 -3031,7426 -4565,15458 -4565,24096 0,10703 1837,19625 5474,26843 3675,7179 9017,12521 16008,15988 7009,3485 14434,5228 22315,5228 6838,0 13525,-1326 20042,-3978 6516,-2671 11441,-5474 14794,-8505l0 -22410 -35064 0z"/>
   <path id="1" class="fil2" d="M881960 480363l15193 2008c-2368,8828 -6782,15704 -13241,20573 -6460,4868 -14700,7312 -24740,7312 -12636,0 -22657,-3903 -30063,-11688 -7407,-7767 -11101,-18697 -11101,-32753 0,-14530 3732,-25820 11214,-33833 7483,-8051 17201,-12048 29135,-12048 11555,0 20989,3921 28301,11783 7312,7880 10987,18962 10987,33226 0,872 -19,2179 -75,3903l-64540 0c568,9490 3239,16783 8070,21822 4830,5039 10854,7559 18072,7559 5361,0 9964,-1421 13733,-4244 3827,-2841 6820,-7387 9055,-13620zm-48097 -23546l48268 0c-644,-7274 -2520,-12730 -5551,-16386 -4641,-5645 -10702,-8487 -18128,-8487 -6744,0 -12389,2254 -16992,6763 -4547,4508 -7085,10551 -7597,18110z"/>
   <path id="2" class="fil2" d="M909864 482542l14529 -2349c815,5815 3088,10267 6820,13393 3732,3087 8960,4641 15647,4641 6763,0 11764,-1364 15041,-4111 3258,-2728 4906,-5948 4906,-9661 0,-3315 -1477,-5929 -4395,-7824 -2064,-1307 -7065,-2936 -15041,-4982 -10740,-2690 -18166,-5020 -22334,-7009 -4148,-2008 -7293,-4717 -9433,-8240 -2141,-3467 -3240,-7331 -3240,-11574 0,-3865 891,-7426 2652,-10703 1781,-3296 4168,-6024 7199,-8184 2292,-1667 5399,-3088 9339,-4262 3940,-1174 8145,-1743 12654,-1743 6782,0 12749,966 17863,2936 5153,1952 8942,4623 11385,7957 2425,3371 4111,7861 5039,13468l-14359 2008c-644,-4508 -2538,-8032 -5645,-10570 -3126,-2539 -7520,-3789 -13222,-3789 -6706,0 -11518,1118 -14397,3334 -2861,2236 -4300,4850 -4300,7824 0,1894 568,3618 1780,5152 1194,1554 3050,2861 5608,3903 1477,549 5758,1799 12938,3750 10362,2747 17598,5039 21709,6782 4129,1762 7350,4357 9699,7691 2349,3372 3523,7540 3523,12541 0,4868 -1421,9471 -4281,13790 -2860,4300 -6990,7653 -12351,10002 -5399,2368 -11499,3543 -18299,3543 -11233,0 -19834,-2330 -25725,-6990 -5910,-4679 -9661,-11575 -11309,-20724z"/>
   <path id="3" class="fil2" d="M1031082 495309l2008 12977c-4111,852 -7824,1307 -11044,1307 -5323,0 -9434,-834 -12389,-2539 -2917,-1705 -4982,-3902 -6176,-6649 -1193,-2766 -1780,-8543 -1780,-17371l0 -49915 -10855 0 0 -11347 10855 0 0 -21444 14700 -8809 0 30253 14681 0 0 11347 -14681 0 0 50749c0,4205 246,6914 776,8107 493,1194 1326,2141 2501,2861 1174,701 2841,1061 5001,1061 1629,0 3770,-190 6403,-588z"/>
   <path id="4" class="fil2" d="M1045592 405575l0 -16708 14681 0 0 16708 -14681 0zm0 102843l0 -86646 14681 0 0 86646 -14681 0z"/>
   <path id="5" class="fil2" d="M1077171 465095c0,-16007 4451,-27866 13374,-35575 7444,-6384 16537,-9586 27259,-9586 11877,0 21614,3884 29192,11688 7539,7748 11309,18527 11309,32242 0,11138 -1667,19871 -5001,26236 -3334,6384 -8203,11328 -14606,14871 -6384,3523 -13355,5285 -20894,5285 -12143,0 -21936,-3865 -29419,-11631 -7483,-7767 -11214,-18944 -11214,-33530zm15022 19c0,11082 2424,19379 7274,24853 4868,5513 10949,8260 18337,8260 7274,0 13355,-2747 18223,-8278 4831,-5551 7256,-13981 7256,-25309 0,-10684 -2444,-18772 -7312,-24266 -4869,-5512 -10931,-8259 -18167,-8259 -7388,0 -13469,2728 -18337,8202 -4850,5494 -7274,13753 -7274,24797z"/>
   <path id="6" class="fil2" d="M1175543 508418l0 -86646 13185 0 0 12294c6346,-9434 15533,-14132 27524,-14132 5228,0 10021,947 14378,2804 4376,1856 7653,4338 9832,7369 2159,3031 3694,6649 4565,10835 530,2728 796,7483 796,14265l0 53211 -14682 0 0 -52643c0,-5986 -568,-10476 -1704,-13412 -1137,-2955 -3164,-5323 -6062,-7104 -2899,-1761 -6327,-2652 -10211,-2652 -6232,0 -11612,1989 -16139,5967 -4547,3941 -6801,11499 -6801,22562l0 47282 -14681 0z"/>
   <path id="7" class="fil2" d="M1268403 508418l0 -86646 13184 0 0 12294c6346,-9434 15534,-14132 27525,-14132 5228,0 10021,947 14378,2804 4376,1856 7653,4338 9831,7369 2160,3031 3694,6649 4566,10835 530,2728 795,7483 795,14265l0 53211 -14681 0 0 -52643c0,-5986 -568,-10476 -1705,-13412 -1136,-2955 -3163,-5323 -6061,-7104 -2899,-1761 -6327,-2652 -10211,-2652 -6232,0 -11612,1989 -16139,5967 -4547,3941 -6801,11499 -6801,22562l0 47282 -14681 0z"/>
   <path id="8" class="fil2" d="M1417865 497564c-5455,4641 -10722,7899 -15761,9831 -5038,1914 -10437,2861 -16215,2861 -9528,0 -16841,-2311 -21955,-6952 -5134,-4623 -7691,-10552 -7691,-17769 0,-4225 985,-8089 2898,-11594 1951,-3504 4490,-6289 7596,-8410 3145,-2103 6649,-3732 10571,-4812 2898,-758 7274,-1478 13089,-2197 11859,-1383 20611,-3088 26218,-5039 57,-2008 76,-3277 76,-3808 0,-5948 -1383,-10153 -4168,-12616 -3769,-3296 -9358,-4944 -16765,-4944 -6914,0 -12047,1231 -15325,3637 -3315,2425 -5739,6706 -7312,12900l-14359 -2008c1307,-6156 3448,-11138 6441,-14927 3012,-3770 7350,-6668 13033,-8733 5645,-2027 12237,-3050 19701,-3050 7407,0 13431,853 18091,2614 4622,1743 8032,3922 10210,6555 2160,2652 3694,5986 4584,10021 474,2500 720,7009 720,13506l0 19474c0,13601 322,22201 928,25858 588,3637 1800,7122 3581,10456l-15344 0c-1478,-3088 -2425,-6706 -2842,-10854zm-1174 -32564c-5342,2179 -13355,4016 -24039,5513 -6062,871 -10362,1837 -12863,2917 -2500,1099 -4414,2671 -5777,4736 -1364,2084 -2065,4395 -2065,6952 0,3883 1477,7142 4451,9718 2975,2595 7313,3902 13014,3902 5664,0 10684,-1231 15117,-3713 4395,-2443 7653,-5815 9718,-10059 1572,-3315 2368,-8183 2368,-14624l76 -5342z"/>
   <path id="9" class="fil2" d="M1454123 405575l0 -16708 14681 0 0 16708 -14681 0zm0 102843l0 -86646 14681 0 0 86646 -14681 0z"/>
   <path id="10" class="fil2" d="M1491043 508418l0 -86646 13185 0 0 13260c3371,-6138 6478,-10210 9358,-12162 2860,-1970 6005,-2936 9433,-2936 4944,0 9983,1554 15098,4641l-5228 13545c-3562,-1989 -7123,-2993 -10684,-2993 -3202,0 -6062,966 -8601,2879 -2519,1932 -4338,4603 -5417,8032 -1648,5190 -2444,10892 -2444,17106l0 45274 -14700 0z"/>
   <path id="11" class="fil2" d="M1605915 480363l15192 2008c-2367,8828 -6781,15704 -13241,20573 -6460,4868 -14700,7312 -24740,7312 -12635,0 -22656,-3903 -30063,-11688 -7407,-7767 -11100,-18697 -11100,-32753 0,-14530 3731,-25820 11214,-33833 7483,-8051 17200,-12048 29135,-12048 11555,0 20989,3921 28301,11783 7312,7880 10987,18962 10987,33226 0,872 -19,2179 -76,3903l-64539 0c568,9490 3239,16783 8069,21822 4831,5039 10855,7559 18072,7559 5361,0 9964,-1421 13734,-4244 3827,-2841 6820,-7387 9055,-13620zm-48097 -23546l48267 0c-644,-7274 -2519,-12730 -5550,-16386 -4641,-5645 -10703,-8487 -18129,-8487 -6743,0 -12389,2254 -16992,6763 -4546,4508 -7085,10551 -7596,18110z"/>
   <path id="12" class="fil2" d="M1741984 508418l0 -10987c-5474,8544 -13544,12825 -24209,12825 -6895,0 -13241,-1895 -19000,-5702 -5778,-3789 -10267,-9112 -13469,-15894 -3163,-6819 -4755,-14643 -4755,-23489 0,-8619 1440,-16443 4319,-23490 2880,-7009 7199,-12408 12958,-16140 5739,-3750 12199,-5607 19284,-5607 5228,0 9888,1099 13942,3296 4073,2198 7369,5096 9945,8638l0 -43001 14681 0 0 119551 -13696 0zm-46411 -43209c0,11062 2349,19341 7047,24815 4679,5475 10211,8203 16576,8203 6440,0 11896,-2614 16405,-7843 4470,-5228 6724,-13222 6724,-23963 0,-11802 -2273,-20478 -6876,-26009 -4565,-5550 -10210,-8297 -16916,-8297 -6536,0 -11991,2652 -16386,7956 -4376,5323 -6574,13696 -6574,25138z"/>
   <path id="13" class="fil2" d="M1838027 480363l15192 2008c-2368,8828 -6781,15704 -13241,20573 -6460,4868 -14700,7312 -24740,7312 -12635,0 -22656,-3903 -30063,-11688 -7407,-7767 -11101,-18697 -11101,-32753 0,-14530 3732,-25820 11215,-33833 7482,-8051 17200,-12048 29134,-12048 11556,0 20990,3921 28302,11783 7312,7880 10987,18962 10987,33226 0,872 -19,2179 -76,3903l-64540 0c569,9490 3240,16783 8070,21822 4831,5039 10855,7559 18072,7559 5361,0 9964,-1421 13734,-4244 3826,-2841 6819,-7387 9055,-13620zm-48097 -23546l48267 0c-644,-7274 -2519,-12730 -5550,-16386 -4641,-5645 -10703,-8487 -18129,-8487 -6744,0 -12389,2254 -16992,6763 -4546,4508 -7085,10551 -7596,18110z"/>
   <path id="14" class="fil2" d="M1919672 508418l0 -119551 23717 0 28264 84620c2614,7880 4508,13791 5701,17712 1364,-4338 3505,-10741 6403,-19171l28775 -83161 21179 0 0 119551 -15193 0 0 -100020 -34893 100020 -14246 0 -34514 -101858 0 101858 -15193 0z"/>
   <path id="15" class="fil2" d="M2056575 541720l-1667 -13563c3239,853 6024,1307 8411,1307 3277,0 5891,-568 7842,-1648 1990,-1080 3600,-2614 4850,-4565 909,-1478 2425,-5115 4471,-10968 284,-796 700,-2008 1307,-3581l-32886 -86930 15704 0 18072 50029c2368,6308 4452,12995 6327,20004 1686,-6592 3694,-13109 6043,-19512l18470 -50521 14662 0 -32753 88143c-3524,9490 -6289,16007 -8259,19606 -2615,4812 -5627,8335 -8999,10589 -3390,2255 -7425,3372 -12104,3372 -2823,0 -6005,-587 -9491,-1762z"/>
   <path id="16" class="fil2" d="M2142900 508418l0 -119551 52984 0c10665,0 18754,1080 24304,3240 5532,2140 9964,5910 13260,11347 3315,5417 4964,11441 4964,17996 0,8486 -2766,15647 -8241,21462 -5474,5816 -13942,9491 -25403,11082 4206,1989 7369,3997 9548,5948 4622,4225 8979,9548 13071,15913l20686 32563 -19758 0 -15818 -24872c-4584,-7218 -8392,-12692 -11385,-16500 -2993,-3826 -5664,-6460 -8032,-7994 -2330,-1496 -4754,-2557 -7217,-3163 -1781,-379 -4698,-569 -8790,-569l-18299 0 0 53098 -15874 0zm15874 -66794l33946 0c7237,0 12844,-739 16917,-2254 4054,-1459 7160,-3864 9244,-7179 2103,-3278 3164,-6839 3164,-10703 0,-5646 -2027,-10325 -6119,-13981 -4092,-3637 -10552,-5455 -19360,-5455l-37792 0 0 39572z"/>
   <path id="17" class="fil2" d="M2261314 405575l0 -16708 14681 0 0 16708 -14681 0zm0 102843l0 -86646 14681 0 0 86646 -14681 0z"/>
   <path id="18" class="fil2" d="M2354325 508418l0 -10987c-5474,8544 -13544,12825 -24209,12825 -6895,0 -13241,-1895 -19000,-5702 -5778,-3789 -10267,-9112 -13469,-15894 -3163,-6819 -4755,-14643 -4755,-23489 0,-8619 1440,-16443 4319,-23490 2880,-7009 7199,-12408 12958,-16140 5739,-3750 12199,-5607 19284,-5607 5228,0 9888,1099 13942,3296 4073,2198 7369,5096 9945,8638l0 -43001 14681 0 0 119551 -13696 0zm-46411 -43209c0,11062 2349,19341 7047,24815 4679,5475 10211,8203 16576,8203 6440,0 11896,-2614 16404,-7843 4471,-5228 6725,-13222 6725,-23963 0,-11802 -2273,-20478 -6876,-26009 -4565,-5550 -10211,-8297 -16916,-8297 -6536,0 -11992,2652 -16386,7956 -4376,5323 -6574,13696 -6574,25138z"/>
   <path id="19" class="fil2" d="M2450368 480363l15192 2008c-2368,8828 -6782,15704 -13241,20573 -6460,4868 -14700,7312 -24740,7312 -12635,0 -22656,-3903 -30063,-11688 -7407,-7767 -11101,-18697 -11101,-32753 0,-14530 3732,-25820 11215,-33833 7482,-8051 17200,-12048 29134,-12048 11556,0 20990,3921 28302,11783 7312,7880 10987,18962 10987,33226 0,872 -19,2179 -76,3903l-64540 0c569,9490 3240,16783 8070,21822 4831,5039 10855,7559 18072,7559 5361,0 9964,-1421 13734,-4244 3826,-2841 6819,-7387 9055,-13620zm-48097 -23546l48267 0c-644,-7274 -2519,-12730 -5550,-16386 -4641,-5645 -10703,-8487 -18129,-8487 -6744,0 -12389,2254 -16992,6763 -4546,4508 -7085,10551 -7596,18110z"/>
  </g>
 </g>
</svg>
